{"title":"Jaat Airways (2013 Punjabi Movie X264 MP3 Dvd Rip 480P-GOPI SAHI","uid":9033531,"size":415214008,"categoryP":"video","categoryS":"hd___movies","magnet":"?xt=urn:btih:f1fa45fa2f6f30f92f921fab5a9929046b194269&amp;dn=Jaat+Airways+%282013+Punjabi+Movie+X264+MP3+Dvd+Rip+480P-GOPI+SAHI&amp;tr=udp%3A%2F%2Ftracker.openbittorrent.com%3A80&amp;tr=udp%3A%2F%2Fopen.demonii.com%3A1337&amp;tr=udp%3A%2F%2Ftracker.coppersurfer.tk%3A6969&amp;tr=udp%3A%2F%2Fexodus.desync.com%3A6969","seeders":1,"leechers":0,"uploader":"jatt13","files":2,"time":1381462889,"description":" &lt;a href=&quot;http://imageshack.us/a/img802/2678/k9wp.png&quot; rel=&quot;nofollow&quot; target=&quot;_NEW&quot;&gt;http://imageshack.us/a/img802/2678/k9wp.png&lt;/a&gt;\n &lt;a href=&quot;\nhttp://imageshack.us/a/img51/9564/lxb9.jpg&quot; rel=&quot;nofollow&quot; target=&quot;_NEW&quot;&gt;\nhttp://imageshack.us/a/img51/9564/lxb9.jpg&lt;/a&gt;\n &lt;a href=&quot;\nhttp://imageshack.us/a/img834/5591/zfp1.png&quot; rel=&quot;nofollow&quot; target=&quot;_NEW&quot;&gt;\nhttp://imageshack.us/a/img834/5591/zfp1.png&lt;/a&gt;\n\nimdb http://www.imdb.com/title/tt3084502/\n &lt;a href=&quot;\nhttp://imageshack.us/a/img19/3756/exac.jpg&quot; rel=&quot;nofollow&quot; target=&quot;_NEW&quot;&gt;\nhttp://imageshack.us/a/img19/3756/exac.jpg&lt;/a&gt; &lt;a href=&quot;\nhttp://imageshack.us/a/img845/6894/18w.png&quot; rel=&quot;nofollow&quot; target=&quot;_NEW&quot;&gt;\nhttp://imageshack.us/a/img845/6894/18w.png&lt;/a&gt; &lt;a href=&quot;\nhttp://imageshack.us/a/img31/8591/60af.png&quot; rel=&quot;nofollow&quot; target=&quot;_NEW&quot;&gt;\nhttp://imageshack.us/a/img31/8591/60af.png&lt;/a&gt; &lt;a href=&quot;\nhttp://imageshack.us/a/img31/8591/60af.png&quot; rel=&quot;nofollow&quot; target=&quot;_NEW&quot;&gt;\nhttp://imageshack.us/a/img31/8591/60af.png&lt;/a&gt; &lt;a href=&quot;\nhttp://imageshack.us/a/img822/3446/n5er.png&quot; rel=&quot;nofollow&quot; target=&quot;_NEW&quot;&gt;\nhttp://imageshack.us/a/img822/3446/n5er.png&lt;/a&gt;\n\nVideo\nID                             : 1\nFormat                         : AVC\nFormat/Info                    : Advanced Video Codec\nFormat profile                 : &lt;a class=&quot;__cf_email__&quot; href=&quot;/cdn-cgi/l/email-protection&quot; data-cfemail=&quot;16547765737a7f7873565a273825&quot;&gt;[email&amp;#160;protected]&lt;/a&gt;&lt;script cf-hash='f9e31' type=&quot;text/javascript&quot;&gt;\n/* &lt;![CDATA[ */!function(){try{var t=&quot;currentScript&quot;in document?document.currentScript:function(){for(var t=document.getElementsByTagName(&quot;script&quot;),e=t.length;e--;)if(t[e].getAttribute(&quot;cf-hash&quot;))return t[e]}();if(t&amp;&amp;t.previousSibling){var e,r,n,i,c=t.previousSibling,a=c.getAttribute(&quot;data-cfemail&quot;);if(a){for(e=&quot;&quot;,r=parseInt(a.substr(0,2),16),n=2;a.length-n;n+=2)i=parseInt(a.substr(n,2),16)^r,e+=String.fromCharCode(i);e=document.createTextNode(e),c.parentNode.replaceChild(e,c)}}}catch(u){}}();/* ]]&gt; */&lt;/script&gt;\nFormat settings, CABAC         : No\nFormat settings, ReFrames      : 2 frames\nCodec ID                       : V_MPEG4/ISO/AVC\nDuration                       : 2h 16mn\nBit rate                       : 271 Kbps\nNominal bit rate               : 350 Kbps\nWidth                          : 720 pixels\nHeight                         : 360 pixels\nDisplay aspect ratio           : 2.35:1\nOriginal display aspect ratio  : 2.40:1\nFrame rate mode                : Constant\nFrame rate                     : 23.976 fps\nColor space                    : YUV\nChroma subsampling             : 4:2:0\nBit depth                      : 8 bits\nScan type                      : Progressive\nBits/(Pixel*Frame)             : 0.044\nStream size                    : 264 MiB (67%)\nWriting library                : x264 core 130 r2273 \nLanguage                       : English\nDefault                        : Yes\nForced                         : No\nColor primaries                : BT.601 NTSC\nTransfer characteristics       : BT.709\nMatrix coefficients            : BT.601\n\nAudio\nID                             : 2\nFormat                         : MPEG Audio\nFormat version                 : Version 1\nFormat profile                 : Layer 3\nMode                           : Joint stereo\nMode extension                 : MS Stereo\nCodec ID                       : A_MPEG/L3\nCodec ID/Hint                  : MP3\nDuration                       : 2h 16mn\nBit rate mode                  : Constant\nBit rate                       : 128 Kbps\nChannel count                  : 2 channels\nSampling rate                  : 48.0 KHz\nCompression mode               : Lossy\nStream size                    : 125 MiB (31%)\nLanguage                       : Panjabi\nDefault                        : Yes\nForced                         : No","torrent":{"xt":"urn:btih:f1fa45fa2f6f30f92f921fab5a9929046b194269","amp;dn":"Jaat+Airways+%282013+Punjabi+Movie+X264+MP3+Dvd+Rip+480P-GOPI+SAHI","amp;tr":["udp%3A%2F%2Ftracker.openbittorrent.com%3A80","udp%3A%2F%2Fopen.demonii.com%3A1337","udp%3A%2F%2Ftracker.coppersurfer.tk%3A6969","udp%3A%2F%2Fexodus.desync.com%3A6969"],"infoHash":"f1fa45fa2f6f30f92f921fab5a9929046b194269","infoHashBuffer":{"type":"Buffer","data":[241,250,69,250,47,111,48,249,47,146,31,171,90,153,41,4,107,25,66,105]},"announce":[],"urlList":[]}}